<svg xmlns="http://www.w3.org/2000/svg" width="375" height="375"><defs><clipPath id="a"><path d="M0 300h300V0H0v300z"/></clipPath><clipPath id="b"><path d="M0 300h300V0H0v300z"/></clipPath></defs><path d="M0 375h375V0H0v375z" fill="#ffe000"/><g clip-path="url(#a)" transform="matrix(1.25 0 0 -1.25 0 375)"><path d="M80.191 121.166h18.4v121.957h-18.4V121.166zM112.713 121.166h18.4v162.157h-18.4V121.166zM163.183 243.123h-18.4V121.166h18.4v121.957z"/></g><g clip-path="url(#b)" transform="matrix(1.25 0 0 -1.25 0 375)"><path d="M257.116 60.693c-4.576 4.211-10.136 6.782-15.704 9.376-3.75 1.748-7.48 3.635-10.935 5.896-2.866 1.875-3.31 5.04-2.539 8.24.691 2.86 2.657 4.683 5.515 5.162 4.528.76 8.416-.457 11.157-4.399.62-.892 1.228-1.793 1.967-2.872 4.151 2.756 8.221 5.402 12.197 8.185.406.284.564 1.57.278 2.074-.925 1.631-1.993 3.215-3.216 4.635-5.77 6.698-13.366 8.672-21.845 8.225-9.703-.512-17.544-4.402-21.3-13.685-3.852-9.518-2.873-18.793 3.992-26.928 3.856-4.57 9.11-7.089 14.378-9.595 4.246-2.019 8.524-4.013 12.582-6.37 2.997-1.743 4.407-4.707 3.878-8.238-.516-3.45-2.734-5.69-5.984-6.615-6.476-1.84-12.49-.97-17.44 3.952-1.707 1.697-3.099 3.71-4.819 5.8-4.527-2.73-9.124-5.5-14.224-8.577 2.47-3.153 4.393-6.39 7.04-8.848 9.978-9.267 21.914-10.987 34.678-7.786 9.056 2.271 15.46 7.89 17.38 17.283 1.92 9.4.458 18.19-7.036 25.085M196.398 104.126H179.24v-2.683c-.002-17.61 0-35.222-.007-52.833 0-2.358.057-4.722-.074-7.074-.338-6.022-3.45-8.776-9.469-8.48-3.345.162-5.729 1.93-7.525 4.612-.948 1.416-1.83 2.876-2.833 4.461l-13.867-8.836c2.488-5.478 5.96-9.82 11.06-12.709 7.056-3.996 14.63-4.572 22.36-2.776 8.43 1.958 14.08 7.198 16.211 15.636.97 3.84 1.437 7.901 1.468 11.867.148 18.71.07 37.423.056 56.135 0 .9-.146 1.8-.222 2.68M48.593 121.166h18.4v81.305h-18.4v-81.305zM178.68 121.166h18.4v81.305h-18.4v-81.305z"/></g></svg>
